<svg xmlns="http://www.w3.org/2000/svg" width="100" height="100" x="0" y="0" viewBox="0 0 100 100" xml:space="preserve" style="enable-background:new 0 0 100 100"><g><path fill="#FFF" d="M51.5,22h-3c-0.8,0-1.5,0.7-1.5,1.5v13c0,0.8,0.7,1.5,1.5,1.5h3c0.8,0,1.5-0.7,1.5-1.5v-13 C53,22.7,52.3,22,51.5,22z" opacity=".15"/><path fill="#FFF" d="M76.5,47h-13c-0.8,0-1.5,0.7-1.5,1.5v3c0,0.8,0.7,1.5,1.5,1.5h13c0.8,0,1.5-0.7,1.5-1.5v-3 C78,47.7,77.3,47,76.5,47z" opacity=".15"/><path fill="#FFF" d="M51.5,62h-3c-0.8,0-1.5,0.7-1.5,1.5v13c0,0.8,0.7,1.5,1.5,1.5h3c0.8,0,1.5-0.7,1.5-1.5v-13 C53,62.7,52.3,62,51.5,62z" opacity=".15"/><path fill="#FFF" d="M38,51.5v-3c0-0.8-0.7-1.5-1.5-1.5h-13c-0.8,0-1.5,0.7-1.5,1.5v3c0,0.8,0.7,1.5,1.5,1.5h13 C37.3,53,38,52.3,38,51.5z" opacity=".15"/><path fill="#FFF" d="M59.5,42.6c0.6,0.6,1.5,0.6,2.1,0l9.2-9.2c0.6-0.6,0.6-1.5,0-2.1l-2.1-2.1c-0.6-0.6-1.5-0.6-2.1,0l-9.2,9.2 c-0.6,0.6-0.6,1.5,0,2.1L59.5,42.6z" opacity=".15"/><path fill="#FFF" d="M61.7,57.4c-0.6-0.6-1.5-0.6-2.1,0l-2.1,2.1c-0.6,0.6-0.6,1.5,0,2.1l9.2,9.2c0.6,0.6,1.5,0.6,2.1,0l2.1-2.1 c0.6-0.6,0.6-1.5,0-2.1L61.7,57.4z" opacity=".15"/><path fill="#FFF" d="M40.5,57.4c-0.6-0.6-1.5-0.6-2.1,0l-9.2,9.2c-0.6,0.6-0.6,1.5,0,2.1l2.1,2.1c0.6,0.6,1.5,0.6,2.1,0l9.2-9.2 c0.6-0.6,0.6-1.5,0-2.1L40.5,57.4z" opacity=".15"/><path fill="#FFF" d="M33.4,29.1c-0.6-0.6-1.5-0.6-2.1,0l-2.1,2.1c-0.6,0.6-0.6,1.5,0,2.1l9.2,9.2c0.6,0.6,1.5,0.6,2.1,0l2.1-2.1 c0.6-0.6,0.6-1.5,0-2.1L33.4,29.1z" opacity=".15"/></g></svg>