<svg xmlns="http://www.w3.org/2000/svg" width="100" height="100" x="0" y="0" enable-background="new 0 0 100 100" viewBox="0 0 100 100" xml:space="preserve"><path fill="#FFF" d="M73.8,20H26.2c-3.4,0-6.2,2.8-6.2,6.2v47.6c0,3.4,2.8,6.2,6.2,6.2h47.6c3.4,0,6.2-2.8,6.2-6.2V26.2	C80,22.8,77.2,20,73.8,20z M71,69.1c0,0.8-0.8,1.4-1.6,1.4H30.5c-0.8,0-1.4-0.8-1.4-1.6v-9c0-0.8,0.8-1.4,1.6-1.4h38.9	c0.8,0,1.4,0.8,1.4,1.6V69.1z M71,39.9c0,0.8-0.8,1.4-1.6,1.4H30.5c-0.8,0-1.4-0.8-1.4-1.6v-9c0-0.8,0.8-1.4,1.6-1.4h38.9	c0.8,0,1.4,0.8,1.4,1.6V39.9z"/></svg>