<svg xmlns="http://www.w3.org/2000/svg" width="100" height="100" x="0" y="0" enable-background="new 0 0 100 100" viewBox="0 0 100 100" xml:space="preserve"><g display="none"><path fill="#FFF" d="M84.6,0H80H20h-6.2H0v100h13h7h60h7.3H100V0 H84.6z M20,80V20h60v60H20z" display="inline" enable-background="new" opacity=".2"/></g><g display="none"><rect width="59.8" height="59.8" x="20.1" y="20.1" fill="none" stroke-miterlimit="10" stroke-width=".25" display="inline"/></g><g display="none"><g display="inline" opacity=".5"><line x1="79.9" x2="20.1" y1="20.1" y2="79.9" fill="none" stroke-miterlimit="10" stroke-width=".25"/><line x1="20.1" x2="79.9" y1="20.1" y2="79.9" fill="none" stroke-miterlimit="10" stroke-width=".25"/><g><rect width="59.8" height="2" x="20.1" y="20.1" fill="none" stroke-miterlimit="10" stroke-width=".25"/><rect width="59.8" height="2" x="20.1" y="22.1" fill="none" stroke-miterlimit="10" stroke-width=".25"/><rect width="59.8" height="2" x="20.1" y="24.1" fill="none" stroke-miterlimit="10" stroke-width=".25"/><rect width="59.8" height="2" x="20.1" y="26.1" fill="none" stroke-miterlimit="10" stroke-width=".25"/><rect width="59.8" height="2" x="20.1" y="28.1" fill="none" stroke-miterlimit="10" stroke-width=".25"/><rect width="59.8" height="2" x="20.1" y="30.1" fill="none" stroke-miterlimit="10" stroke-width=".25"/><rect width="59.8" height="2" x="20.1" y="32.1" fill="none" stroke-miterlimit="10" stroke-width=".25"/><rect width="59.8" height="2" x="20.1" y="34.1" fill="none" stroke-miterlimit="10" stroke-width=".25"/><rect width="59.8" height="2" x="20.1" y="36.1" fill="none" stroke-miterlimit="10" stroke-width=".25"/><rect width="59.8" height="2" x="20.1" y="38.1" fill="none" stroke-miterlimit="10" stroke-width=".25"/><rect width="59.8" height="2" x="20.1" y="40" fill="none" stroke-miterlimit="10" stroke-width=".25"/><rect width="59.8" height="2" x="20.1" y="42" fill="none" stroke-miterlimit="10" stroke-width=".25"/><rect width="59.8" height="2" x="20.1" y="44" fill="none" stroke-miterlimit="10" stroke-width=".25"/><rect width="59.8" height="2" x="20.1" y="46" fill="none" stroke-miterlimit="10" stroke-width=".25"/><rect width="59.8" height="2" x="20.1" y="48" fill="none" stroke-miterlimit="10" stroke-width=".25"/><rect width="59.8" height="2" x="20.1" y="50" fill="none" stroke-miterlimit="10" stroke-width=".25"/><rect width="59.8" height="2" x="20.1" y="52" fill="none" stroke-miterlimit="10" stroke-width=".25"/><rect width="59.8" height="2" x="20.1" y="54" fill="none" stroke-miterlimit="10" stroke-width=".25"/><rect width="59.8" height="2" x="20.1" y="56" fill="none" stroke-miterlimit="10" stroke-width=".25"/><rect width="59.8" height="2" x="20.1" y="58" fill="none" stroke-miterlimit="10" stroke-width=".25"/><rect width="59.8" height="2" x="20.1" y="60" fill="none" stroke-miterlimit="10" stroke-width=".25"/><rect width="59.8" height="2" x="20.1" y="62" fill="none" stroke-miterlimit="10" stroke-width=".25"/><rect width="59.8" height="2" x="20.1" y="63.9" fill="none" stroke-miterlimit="10" stroke-width=".25"/><rect width="59.8" height="2" x="20.1" y="65.9" fill="none" stroke-miterlimit="10" stroke-width=".25"/><rect width="59.8" height="2" x="20.1" y="67.9" fill="none" stroke-miterlimit="10" stroke-width=".25"/><rect width="59.8" height="2" x="20.1" y="69.9" fill="none" stroke-miterlimit="10" stroke-width=".25"/><rect width="59.8" height="2" x="20.1" y="71.9" fill="none" stroke-miterlimit="10" stroke-width=".25"/><rect width="59.8" height="2" x="20.1" y="73.9" fill="none" stroke-miterlimit="10" stroke-width=".25"/><rect width="59.8" height="2" x="20.1" y="75.9" fill="none" stroke-miterlimit="10" stroke-width=".25"/><rect width="59.8" height="2" x="20.1" y="77.9" fill="none" stroke-miterlimit="10" stroke-width=".25"/></g><g><rect width="2" height="59.8" x="20.1" y="20.1" fill="none" stroke-miterlimit="10" stroke-width=".25"/><rect width="2" height="59.8" x="22.1" y="20.1" fill="none" stroke-miterlimit="10" stroke-width=".25"/><rect width="2" height="59.8" x="24.1" y="20.1" fill="none" stroke-miterlimit="10" stroke-width=".25"/><rect width="2" height="59.8" x="26.1" y="20.1" fill="none" stroke-miterlimit="10" stroke-width=".25"/><rect width="2" height="59.8" x="28.1" y="20.1" fill="none" stroke-miterlimit="10" stroke-width=".25"/><rect width="2" height="59.8" x="30.1" y="20.1" fill="none" stroke-miterlimit="10" stroke-width=".25"/><rect width="2" height="59.8" x="32.1" y="20.1" fill="none" stroke-miterlimit="10" stroke-width=".25"/><rect width="2" height="59.8" x="34.1" y="20.1" fill="none" stroke-miterlimit="10" stroke-width=".25"/><rect width="2" height="59.8" x="36.1" y="20.1" fill="none" stroke-miterlimit="10" stroke-width=".25"/><rect width="2" height="59.8" x="38.1" y="20.1" fill="none" stroke-miterlimit="10" stroke-width=".25"/><rect width="2" height="59.8" x="40" y="20.1" fill="none" stroke-miterlimit="10" stroke-width=".25"/><rect width="2" height="59.8" x="42" y="20.1" fill="none" stroke-miterlimit="10" stroke-width=".25"/><rect width="2" height="59.8" x="44" y="20.1" fill="none" stroke-miterlimit="10" stroke-width=".25"/><rect width="2" height="59.8" x="46" y="20.1" fill="none" stroke-miterlimit="10" stroke-width=".25"/><rect width="2" height="59.8" x="48" y="20.1" fill="none" stroke-miterlimit="10" stroke-width=".25"/><rect width="2" height="59.8" x="50" y="20.1" fill="none" stroke-miterlimit="10" stroke-width=".25"/><rect width="2" height="59.8" x="52" y="20.1" fill="none" stroke-miterlimit="10" stroke-width=".25"/><rect width="2" height="59.8" x="54" y="20.1" fill="none" stroke-miterlimit="10" stroke-width=".25"/><rect width="2" height="59.8" x="56" y="20.1" fill="none" stroke-miterlimit="10" stroke-width=".25"/><rect width="2" height="59.8" x="58" y="20.1" fill="none" stroke-miterlimit="10" stroke-width=".25"/><rect width="2" height="59.8" x="60" y="20.1" fill="none" stroke-miterlimit="10" stroke-width=".25"/><rect width="2" height="59.8" x="62" y="20.1" fill="none" stroke-miterlimit="10" stroke-width=".25"/><rect width="2" height="59.8" x="63.9" y="20.1" fill="none" stroke-miterlimit="10" stroke-width=".25"/><rect width="2" height="59.8" x="65.9" y="20.1" fill="none" stroke-miterlimit="10" stroke-width=".25"/><rect width="2" height="59.8" x="67.9" y="20.1" fill="none" stroke-miterlimit="10" stroke-width=".25"/><rect width="2" height="59.8" x="69.9" y="20.1" fill="none" stroke-miterlimit="10" stroke-width=".25"/><rect width="2" height="59.8" x="71.9" y="20.1" fill="none" stroke-miterlimit="10" stroke-width=".25"/><rect width="2" height="59.8" x="73.9" y="20.1" fill="none" stroke-miterlimit="10" stroke-width=".25"/><rect width="2" height="59.8" x="75.9" y="20.1" fill="none" stroke-miterlimit="10" stroke-width=".25"/><rect width="2" height="59.8" x="77.9" y="20.1" fill="none" stroke-miterlimit="10" stroke-width=".25"/></g></g></g><path fill="#FFF" d="M64.9,47.4c-8.2,0-15,6.7-15,15c0,8.2,6.7,15,15,15s15-6.7,15-15S73.1,47.4,64.9,47.4z M72.2,60.5l-2.8,2.8	c-0.3,0.3-0.4,0.6-0.4,0.8l0.7,4.2c0.2,1.2-0.9,0.5-0.9,0.5L65.4,67c-0.5-0.3-1,0-1,0l-3.5,1.8c-0.9,0.5-0.9,0-0.9-0.4l0.7-3.9	c0.1-0.8-0.3-1.1-0.3-1.2l-2.5-2.4l-0.3-0.3c-0.3-0.3-0.5-0.8,0.6-1l3.5-0.5c0.5-0.1,0.8-0.3,0.9-0.5l1.9-3.9	c0.1-0.3,0.5-0.6,0.9,0.2l1.9,3.8c0.1,0.2,0.4,0.3,0.6,0.4h0.3l3.7,0.5H72C72.2,59.7,72.9,59.9,72.2,60.5z"/><path fill="#FFF" d="M48.9,77.2c1,0,1.6-1.2,1-2c-3.2-3.6-5-8.2-5-13c0-3.4,1.1-7.2,2.9-10.2c2.1-3.6,4.5-5.1,6.4-7.9	c3.1-4.6,3.7-11.2,1.7-16.2c-2-5.1-6.7-8.1-12.2-8s-10,3.5-11.7,8.6c-2,5.6-1.1,12.4,3.4,16.6c1.9,1.7,3.5,4.4,2.6,7	c-0.2,0.5-0.8,1.3-2.2,1.9c-5.7,2.5-11.5,5.5-14.1,9.7c-0.5,0.8-1.5,2.8-1.6,5.6l0,0c0,0.7,0,1.3,0.1,2.2c0,0.4,0,0.4,0.1,0.8	c0.3,1.7,1.3,3.2,2.8,4.1c0.6,0.3,2,0.8,4.7,0.8H48.9z"/></svg>