<svg xmlns="http://www.w3.org/2000/svg" width="100" height="100" x="0" y="0" enable-background="new 0 0 100 100" viewBox="0 0 100 100" xml:space="preserve"><g display="none"><path fill="#FFF" d="M84.6,0H80H20h-6.2H0v100h13h7h60h7.3H100V0 H84.6z M20,80V20h60v60H20z" display="inline" enable-background="new" opacity=".2"/></g><g display="none"><rect width="59.8" height="59.8" x="20.1" y="20.1" fill="none" stroke-miterlimit="10" stroke-width=".25" display="inline"/></g><g display="none"><g display="inline" opacity=".5"><line x1="79.9" x2="20.1" y1="20.1" y2="79.9" fill="none" stroke-miterlimit="10" stroke-width=".25"/><line x1="20.1" x2="79.9" y1="20.1" y2="79.9" fill="none" stroke-miterlimit="10" stroke-width=".25"/><g><rect width="59.8" height="2" x="20.1" y="20.1" fill="none" stroke-miterlimit="10" stroke-width=".25"/><rect width="59.8" height="2" x="20.1" y="22.1" fill="none" stroke-miterlimit="10" stroke-width=".25"/><rect width="59.8" height="2" x="20.1" y="24.1" fill="none" stroke-miterlimit="10" stroke-width=".25"/><rect width="59.8" height="2" x="20.1" y="26.1" fill="none" stroke-miterlimit="10" stroke-width=".25"/><rect width="59.8" height="2" x="20.1" y="28.1" fill="none" stroke-miterlimit="10" stroke-width=".25"/><rect width="59.8" height="2" x="20.1" y="30.1" fill="none" stroke-miterlimit="10" stroke-width=".25"/><rect width="59.8" height="2" x="20.1" y="32.1" fill="none" stroke-miterlimit="10" stroke-width=".25"/><rect width="59.8" height="2" x="20.1" y="34.1" fill="none" stroke-miterlimit="10" stroke-width=".25"/><rect width="59.8" height="2" x="20.1" y="36.1" fill="none" stroke-miterlimit="10" stroke-width=".25"/><rect width="59.8" height="2" x="20.1" y="38.1" fill="none" stroke-miterlimit="10" stroke-width=".25"/><rect width="59.8" height="2" x="20.1" y="40" fill="none" stroke-miterlimit="10" stroke-width=".25"/><rect width="59.8" height="2" x="20.1" y="42" fill="none" stroke-miterlimit="10" stroke-width=".25"/><rect width="59.8" height="2" x="20.1" y="44" fill="none" stroke-miterlimit="10" stroke-width=".25"/><rect width="59.8" height="2" x="20.1" y="46" fill="none" stroke-miterlimit="10" stroke-width=".25"/><rect width="59.8" height="2" x="20.1" y="48" fill="none" stroke-miterlimit="10" stroke-width=".25"/><rect width="59.8" height="2" x="20.1" y="50" fill="none" stroke-miterlimit="10" stroke-width=".25"/><rect width="59.8" height="2" x="20.1" y="52" fill="none" stroke-miterlimit="10" stroke-width=".25"/><rect width="59.8" height="2" x="20.1" y="54" fill="none" stroke-miterlimit="10" stroke-width=".25"/><rect width="59.8" height="2" x="20.1" y="56" fill="none" stroke-miterlimit="10" stroke-width=".25"/><rect width="59.8" height="2" x="20.1" y="58" fill="none" stroke-miterlimit="10" stroke-width=".25"/><rect width="59.8" height="2" x="20.1" y="60" fill="none" stroke-miterlimit="10" stroke-width=".25"/><rect width="59.8" height="2" x="20.1" y="62" fill="none" stroke-miterlimit="10" stroke-width=".25"/><rect width="59.8" height="2" x="20.1" y="63.9" fill="none" stroke-miterlimit="10" stroke-width=".25"/><rect width="59.8" height="2" x="20.1" y="65.9" fill="none" stroke-miterlimit="10" stroke-width=".25"/><rect width="59.8" height="2" x="20.1" y="67.9" fill="none" stroke-miterlimit="10" stroke-width=".25"/><rect width="59.8" height="2" x="20.1" y="69.9" fill="none" stroke-miterlimit="10" stroke-width=".25"/><rect width="59.8" height="2" x="20.1" y="71.9" fill="none" stroke-miterlimit="10" stroke-width=".25"/><rect width="59.8" height="2" x="20.1" y="73.9" fill="none" stroke-miterlimit="10" stroke-width=".25"/><rect width="59.8" height="2" x="20.1" y="75.9" fill="none" stroke-miterlimit="10" stroke-width=".25"/><rect width="59.8" height="2" x="20.1" y="77.9" fill="none" stroke-miterlimit="10" stroke-width=".25"/></g><g><rect width="2" height="59.8" x="20.1" y="20.1" fill="none" stroke-miterlimit="10" stroke-width=".25"/><rect width="2" height="59.8" x="22.1" y="20.1" fill="none" stroke-miterlimit="10" stroke-width=".25"/><rect width="2" height="59.8" x="24.1" y="20.1" fill="none" stroke-miterlimit="10" stroke-width=".25"/><rect width="2" height="59.8" x="26.1" y="20.1" fill="none" stroke-miterlimit="10" stroke-width=".25"/><rect width="2" height="59.8" x="28.1" y="20.1" fill="none" stroke-miterlimit="10" stroke-width=".25"/><rect width="2" height="59.8" x="30.1" y="20.1" fill="none" stroke-miterlimit="10" stroke-width=".25"/><rect width="2" height="59.8" x="32.1" y="20.1" fill="none" stroke-miterlimit="10" stroke-width=".25"/><rect width="2" height="59.8" x="34.1" y="20.1" fill="none" stroke-miterlimit="10" stroke-width=".25"/><rect width="2" height="59.8" x="36.1" y="20.1" fill="none" stroke-miterlimit="10" stroke-width=".25"/><rect width="2" height="59.8" x="38.1" y="20.1" fill="none" stroke-miterlimit="10" stroke-width=".25"/><rect width="2" height="59.8" x="40" y="20.1" fill="none" stroke-miterlimit="10" stroke-width=".25"/><rect width="2" height="59.8" x="42" y="20.1" fill="none" stroke-miterlimit="10" stroke-width=".25"/><rect width="2" height="59.8" x="44" y="20.1" fill="none" stroke-miterlimit="10" stroke-width=".25"/><rect width="2" height="59.8" x="46" y="20.1" fill="none" stroke-miterlimit="10" stroke-width=".25"/><rect width="2" height="59.8" x="48" y="20.1" fill="none" stroke-miterlimit="10" stroke-width=".25"/><rect width="2" height="59.8" x="50" y="20.1" fill="none" stroke-miterlimit="10" stroke-width=".25"/><rect width="2" height="59.8" x="52" y="20.1" fill="none" stroke-miterlimit="10" stroke-width=".25"/><rect width="2" height="59.8" x="54" y="20.1" fill="none" stroke-miterlimit="10" stroke-width=".25"/><rect width="2" height="59.8" x="56" y="20.1" fill="none" stroke-miterlimit="10" stroke-width=".25"/><rect width="2" height="59.8" x="58" y="20.1" fill="none" stroke-miterlimit="10" stroke-width=".25"/><rect width="2" height="59.8" x="60" y="20.1" fill="none" stroke-miterlimit="10" stroke-width=".25"/><rect width="2" height="59.8" x="62" y="20.1" fill="none" stroke-miterlimit="10" stroke-width=".25"/><rect width="2" height="59.8" x="63.9" y="20.1" fill="none" stroke-miterlimit="10" stroke-width=".25"/><rect width="2" height="59.8" x="65.9" y="20.1" fill="none" stroke-miterlimit="10" stroke-width=".25"/><rect width="2" height="59.8" x="67.9" y="20.1" fill="none" stroke-miterlimit="10" stroke-width=".25"/><rect width="2" height="59.8" x="69.9" y="20.1" fill="none" stroke-miterlimit="10" stroke-width=".25"/><rect width="2" height="59.8" x="71.9" y="20.1" fill="none" stroke-miterlimit="10" stroke-width=".25"/><rect width="2" height="59.8" x="73.9" y="20.1" fill="none" stroke-miterlimit="10" stroke-width=".25"/><rect width="2" height="59.8" x="75.9" y="20.1" fill="none" stroke-miterlimit="10" stroke-width=".25"/><rect width="2" height="59.8" x="77.9" y="20.1" fill="none" stroke-miterlimit="10" stroke-width=".25"/></g></g></g><g><g><path fill="#FFF" d="M21.2,51.9L48,64.6c1.2,0.6,2.7,0.6,3.9,0l26.9-12.7c1.6-0.8,1.6-2.9,0-3.7L51.9,35.5 c-1.2-0.6-2.7-0.6-3.9,0L21.2,48.3C19.5,49,19.5,51.2,21.2,51.9z"/></g></g></svg>