<svg xmlns="http://www.w3.org/2000/svg" width="100" height="100" x="0" y="0" enable-background="new 0 0 100 100" viewBox="0 0 100 100" xml:space="preserve"><path fill="#FFF" d="M70.9,20H29.1c-4.3,0-7.8,3.5-7.8,7.8v44.3c0,4.3,3.5,7.8,7.8,7.8h41.7c4.3,0,7.8-3.5,7.8-7.8V27.8	C78.7,23.5,75.2,20,70.9,20z M68.3,67c0,1.4-1.2,2.6-2.6,2.6H34.3c-1.4,0-2.6-1.2-2.6-2.6v-2.6c0-1.4,1.2-2.6,2.6-2.6h31.3	c1.4,0,2.6,1.2,2.6,2.6V67z M68.3,51.3c0,1.4-1.2,2.6-2.6,2.6H34.3c-1.4,0-2.6-1.2-2.6-2.6v-2.6c0-1.4,1.2-2.6,2.6-2.6h31.3	c1.4,0,2.6,1.2,2.6,2.6V51.3z M68.3,35.7c0,1.4-1.2,2.6-2.6,2.6H34.3c-1.4,0-2.6-1.2-2.6-2.6V33c0-1.4,1.2-2.6,2.6-2.6h31.3	c1.4,0,2.6,1.2,2.6,2.6V35.7z"/></svg>