<svg xmlns="http://www.w3.org/2000/svg" width="100" height="100" x="0" y="0" enable-background="new 0 0 100 100" viewBox="0 0 100 100" xml:space="preserve"><g><path fill="#FFF" d="M77,70H23c-1.6,0-3,1.3-3,3l0,0c0,1.6,1.3,3,3,3h54c1.6,0,3-1.3,3-3l0,0C80,71.3,78.7,70,77,70z"/><path fill="#FFF" d="M24,64h34v-4c0-1.1,0.9-2,2-2h10c1.1,0,2,0.9,2,2v4h4c1.1,0,2-0.9,2-2V28c0-1.1-0.9-2-2-2H24 c-1.1,0-2,0.9-2,2v34C22,63.1,22.9,64,24,64z M33,38c0-1.1,0.9-2,2-2h29c1.1,0,2,0.9,2,2v2c0,1.1-0.9,2-2,2H35c-1.1,0-2-0.9-2-2V38 z M33,50c0-1.1,0.9-2,2-2h19c1.1,0,2,0.9,2,2v2c0,1.1-0.9,2-2,2H35c-1.1,0-2-0.9-2-2V50z"/></g></svg>