<svg xmlns="http://www.w3.org/2000/svg" width="52" height="52" x="0" y="0" enable-background="new 0 0 52 52" viewBox="0 0 52 52" xml:space="preserve"><g display="none"><path fill="#FFF" d="M0,0v52h52V0H0z M49.9,49.9H2.1V2.1h47.8 C49.9,2.1,49.9,49.9,49.9,49.9z" display="inline" enable-background="new" opacity=".2"/></g><g display="none"><rect width="48" height="48" x="2" y="2" fill="none" stroke-miterlimit="10" stroke-width=".25" display="inline"/></g><g display="none"><g display="inline" opacity=".5"><line x1="50" x2="2" y1="2" y2="50" fill="none" stroke-miterlimit="10" stroke-width=".25"/><line x1="2" x2="49.9" y1="2" y2="50" fill="none" stroke-miterlimit="10" stroke-width=".25"/><rect width="2" height="48" x="2" y="2" fill="none" stroke-miterlimit="10" stroke-width=".25"/><rect width="2" height="48" x="4" y="2" fill="none" stroke-miterlimit="10" stroke-width=".25"/><rect width="2" height="48" x="6" y="2" fill="none" stroke-miterlimit="10" stroke-width=".25"/><rect width="2" height="48" x="8" y="2" fill="none" stroke-miterlimit="10" stroke-width=".25"/><rect width="2" height="48" x="10" y="2" fill="none" stroke-miterlimit="10" stroke-width=".25"/><rect width="2" height="48" x="12" y="2" fill="none" stroke-miterlimit="10" stroke-width=".25"/><rect width="2" height="48" x="14" y="2" fill="none" stroke-miterlimit="10" stroke-width=".25"/><rect width="2" height="48" x="16" y="2" fill="none" stroke-miterlimit="10" stroke-width=".25"/><rect width="2" height="48" x="18" y="2" fill="none" stroke-miterlimit="10" stroke-width=".25"/><rect width="2" height="48" x="20" y="2" fill="none" stroke-miterlimit="10" stroke-width=".25"/><rect width="2" height="48" x="22" y="2" fill="none" stroke-miterlimit="10" stroke-width=".25"/><rect width="2" height="48" x="24" y="2" fill="none" stroke-miterlimit="10" stroke-width=".25"/><rect width="2" height="48" x="26" y="2" fill="none" stroke-miterlimit="10" stroke-width=".25"/><rect width="2" height="48" x="28" y="2" fill="none" stroke-miterlimit="10" stroke-width=".25"/><rect width="2" height="48" x="30" y="2" fill="none" stroke-miterlimit="10" stroke-width=".25"/><rect width="2" height="48" x="32" y="2" fill="none" stroke-miterlimit="10" stroke-width=".25"/><rect width="2" height="48" x="34" y="2" fill="none" stroke-miterlimit="10" stroke-width=".25"/><rect width="2" height="48" x="36" y="2" fill="none" stroke-miterlimit="10" stroke-width=".25"/><rect width="2" height="48" x="38" y="2" fill="none" stroke-miterlimit="10" stroke-width=".25"/><rect width="2" height="48" x="40" y="2" fill="none" stroke-miterlimit="10" stroke-width=".25"/><rect width="2" height="48" x="42" y="2" fill="none" stroke-miterlimit="10" stroke-width=".25"/><rect width="2" height="48" x="44" y="2" fill="none" stroke-miterlimit="10" stroke-width=".25"/><rect width="2" height="48" x="46" y="2" fill="none" stroke-miterlimit="10" stroke-width=".25"/><rect width="2" height="48" x="48" y="2" fill="none" stroke-miterlimit="10" stroke-width=".25"/><rect width="48" height="2" x="2" y="48" fill="none" stroke-miterlimit="10" stroke-width=".25"/><rect width="48" height="2" x="2" y="46" fill="none" stroke-miterlimit="10" stroke-width=".25"/><rect width="48" height="2" x="2" y="44" fill="none" stroke-miterlimit="10" stroke-width=".25"/><rect width="48" height="2" x="2" y="42" fill="none" stroke-miterlimit="10" stroke-width=".25"/><rect width="48" height="2" x="2" y="40" fill="none" stroke-miterlimit="10" stroke-width=".25"/><rect width="48" height="2" x="2" y="38" fill="none" stroke-miterlimit="10" stroke-width=".25"/><rect width="48" height="2" x="2" y="36" fill="none" stroke-miterlimit="10" stroke-width=".25"/><rect width="48" height="2" x="2" y="34" fill="none" stroke-miterlimit="10" stroke-width=".25"/><rect width="48" height="2" x="2" y="32" fill="none" stroke-miterlimit="10" stroke-width=".25"/><rect width="48" height="2" x="2" y="30" fill="none" stroke-miterlimit="10" stroke-width=".25"/><rect width="48" height="2" x="2" y="28" fill="none" stroke-miterlimit="10" stroke-width=".25"/><rect width="48" height="2" x="2" y="26" fill="none" stroke-miterlimit="10" stroke-width=".25"/><rect width="48" height="2" x="2" y="24" fill="none" stroke-miterlimit="10" stroke-width=".25"/><rect width="48" height="2" x="2" y="22" fill="none" stroke-miterlimit="10" stroke-width=".25"/><rect width="48" height="2" x="2" y="20" fill="none" stroke-miterlimit="10" stroke-width=".25"/><rect width="48" height="2" x="2" y="18" fill="none" stroke-miterlimit="10" stroke-width=".25"/><rect width="48" height="2" x="2" y="16" fill="none" stroke-miterlimit="10" stroke-width=".25"/><rect width="48" height="2" x="2" y="14" fill="none" stroke-miterlimit="10" stroke-width=".25"/><rect width="48" height="2" x="2" y="12" fill="none" stroke-miterlimit="10" stroke-width=".25"/><rect width="48" height="2" x="2" y="10" fill="none" stroke-miterlimit="10" stroke-width=".25"/><rect width="48" height="2" x="2" y="8" fill="none" stroke-miterlimit="10" stroke-width=".25"/><rect width="48" height="2" x="2" y="6" fill="none" stroke-miterlimit="10" stroke-width=".25"/><rect width="48" height="2" x="2" y="4" fill="none" stroke-miterlimit="10" stroke-width=".25"/><rect width="48" height="2" x="2" y="2" fill="none" stroke-miterlimit="10" stroke-width=".25"/></g></g><g><path fill="#FFF" d="M50,3.2c0-1-0.6-1.2-0.9-1.2H28.4c-1.5,0-1.5,1.5-1.5,1.5v2.9c0,1.3,0.8,1.6,1.2,1.6h14.4 c0.6,0.1,1.5,0.5,1.5,2.1v13.6c0.1,0.4,0.3,1.3,1.5,1.3h3.2c0,0,1.3,0,1.3-1.5V3.2z"/><path fill="#FFF" d="M37.5,15.7c0.1-1-0.6-1.2-0.9-1.2H15.9c-1.5,0-1.5,1.5-1.5,1.5v2.9c0,1.3,0.8,1.6,1.2,1.6H30 c0.6,0.1,1.5,0.5,1.5,2.1v13.6c0.1,0.4,0.3,1.3,1.5,1.3h3.2c0,0,1.3,0,1.3-1.5V15.7z"/><path fill="#FFF" d="M5.3,48.8c0.2,0.2,1,0.8,2.1-0.3l10.4-10.4c0.3-0.3,1.2-1,1.2,0.4v10.2c0.1,0.4,0.3,1.3,1.5,1.3h3.2 c0,0,1.3,0,1.3-1.5V28.2c0-1-0.6-1.1-0.9-1.2H3.4c-1.5,0-1.5,1.5-1.5,1.5v2.9c0,1.3,0.8,1.6,1.2,1.6h9.6c0.4,0,1.6,0.1,0.5,1.2l0,0 l-10,10.2c0,0-1.2,1.1-0.2,2.1L5.3,48.8z"/></g></svg>