<svg xmlns="http://www.w3.org/2000/svg" width="52" height="52" x="0" y="0" enable-background="new 0 0 52 52" viewBox="0 0 52 52" xml:space="preserve"><path fill="#FFF" d="M37.1,4v13.6c0,1-0.8,1.9-1.9,1.9H13.9c-1,0-1.9-0.8-1.9-1.9V4H8C5.8,4,4,5.8,4,8v36c0,2.2,1.8,4,4,4h36	c2.2,0,4-1.8,4-4V11.2L40.8,4H37.1z M44.1,42.1c0,1-0.8,1.9-1.9,1.9H9.9c-1,0-1.9-0.8-1.9-1.9V25.4c0-1,0.8-1.9,1.9-1.9h32.3	c1,0,1.9,0.8,1.9,1.9V42.1z"/><g><path fill="#FFF" d="M24.8,13.6c0,1,0.8,1.9,1.9,1.9h4.6c1,0,1.9-0.8,1.9-1.9V4h-8.3L24.8,13.6L24.8,13.6z"/></g></svg>