<svg xmlns="http://www.w3.org/2000/svg" width="52" height="52" x="0" y="0" enable-background="new 0 0 52 52" viewBox="0 0 52 52" xml:space="preserve"><g display="none"><path fill="#FFF" d="M0,0v52h52V0H0z M49.9,49.9H2.1V2.1h47.8 C49.9,2.1,49.9,49.9,49.9,49.9z" display="inline" enable-background="new" opacity=".2"/></g><g display="none"><rect width="48" height="48" x="2" y="2" fill="none" stroke-miterlimit="10" stroke-width=".25" display="inline"/></g><g display="none"><g display="inline" opacity=".5"><line x1="50" x2="2" y1="2" y2="50" fill="none" stroke-miterlimit="10" stroke-width=".25"/><line x1="2" x2="49.9" y1="2" y2="50" fill="none" stroke-miterlimit="10" stroke-width=".25"/><rect width="2" height="48" x="2" y="2" fill="none" stroke-miterlimit="10" stroke-width=".25"/><rect width="2" height="48" x="4" y="2" fill="none" stroke-miterlimit="10" stroke-width=".25"/><rect width="2" height="48" x="6" y="2" fill="none" stroke-miterlimit="10" stroke-width=".25"/><rect width="2" height="48" x="8" y="2" fill="none" stroke-miterlimit="10" stroke-width=".25"/><rect width="2" height="48" x="10" y="2" fill="none" stroke-miterlimit="10" stroke-width=".25"/><rect width="2" height="48" x="12" y="2" fill="none" stroke-miterlimit="10" stroke-width=".25"/><rect width="2" height="48" x="14" y="2" fill="none" stroke-miterlimit="10" stroke-width=".25"/><rect width="2" height="48" x="16" y="2" fill="none" stroke-miterlimit="10" stroke-width=".25"/><rect width="2" height="48" x="18" y="2" fill="none" stroke-miterlimit="10" stroke-width=".25"/><rect width="2" height="48" x="20" y="2" fill="none" stroke-miterlimit="10" stroke-width=".25"/><rect width="2" height="48" x="22" y="2" fill="none" stroke-miterlimit="10" stroke-width=".25"/><rect width="2" height="48" x="24" y="2" fill="none" stroke-miterlimit="10" stroke-width=".25"/><rect width="2" height="48" x="26" y="2" fill="none" stroke-miterlimit="10" stroke-width=".25"/><rect width="2" height="48" x="28" y="2" fill="none" stroke-miterlimit="10" stroke-width=".25"/><rect width="2" height="48" x="30" y="2" fill="none" stroke-miterlimit="10" stroke-width=".25"/><rect width="2" height="48" x="32" y="2" fill="none" stroke-miterlimit="10" stroke-width=".25"/><rect width="2" height="48" x="34" y="2" fill="none" stroke-miterlimit="10" stroke-width=".25"/><rect width="2" height="48" x="36" y="2" fill="none" stroke-miterlimit="10" stroke-width=".25"/><rect width="2" height="48" x="38" y="2" fill="none" stroke-miterlimit="10" stroke-width=".25"/><rect width="2" height="48" x="40" y="2" fill="none" stroke-miterlimit="10" stroke-width=".25"/><rect width="2" height="48" x="42" y="2" fill="none" stroke-miterlimit="10" stroke-width=".25"/><rect width="2" height="48" x="44" y="2" fill="none" stroke-miterlimit="10" stroke-width=".25"/><rect width="2" height="48" x="46" y="2" fill="none" stroke-miterlimit="10" stroke-width=".25"/><rect width="2" height="48" x="48" y="2" fill="none" stroke-miterlimit="10" stroke-width=".25"/><rect width="48" height="2" x="2" y="48" fill="none" stroke-miterlimit="10" stroke-width=".25"/><rect width="48" height="2" x="2" y="46" fill="none" stroke-miterlimit="10" stroke-width=".25"/><rect width="48" height="2" x="2" y="44" fill="none" stroke-miterlimit="10" stroke-width=".25"/><rect width="48" height="2" x="2" y="42" fill="none" stroke-miterlimit="10" stroke-width=".25"/><rect width="48" height="2" x="2" y="40" fill="none" stroke-miterlimit="10" stroke-width=".25"/><rect width="48" height="2" x="2" y="38" fill="none" stroke-miterlimit="10" stroke-width=".25"/><rect width="48" height="2" x="2" y="36" fill="none" stroke-miterlimit="10" stroke-width=".25"/><rect width="48" height="2" x="2" y="34" fill="none" stroke-miterlimit="10" stroke-width=".25"/><rect width="48" height="2" x="2" y="32" fill="none" stroke-miterlimit="10" stroke-width=".25"/><rect width="48" height="2" x="2" y="30" fill="none" stroke-miterlimit="10" stroke-width=".25"/><rect width="48" height="2" x="2" y="28" fill="none" stroke-miterlimit="10" stroke-width=".25"/><rect width="48" height="2" x="2" y="26" fill="none" stroke-miterlimit="10" stroke-width=".25"/><rect width="48" height="2" x="2" y="24" fill="none" stroke-miterlimit="10" stroke-width=".25"/><rect width="48" height="2" x="2" y="22" fill="none" stroke-miterlimit="10" stroke-width=".25"/><rect width="48" height="2" x="2" y="20" fill="none" stroke-miterlimit="10" stroke-width=".25"/><rect width="48" height="2" x="2" y="18" fill="none" stroke-miterlimit="10" stroke-width=".25"/><rect width="48" height="2" x="2" y="16" fill="none" stroke-miterlimit="10" stroke-width=".25"/><rect width="48" height="2" x="2" y="14" fill="none" stroke-miterlimit="10" stroke-width=".25"/><rect width="48" height="2" x="2" y="12" fill="none" stroke-miterlimit="10" stroke-width=".25"/><rect width="48" height="2" x="2" y="10" fill="none" stroke-miterlimit="10" stroke-width=".25"/><rect width="48" height="2" x="2" y="8" fill="none" stroke-miterlimit="10" stroke-width=".25"/><rect width="48" height="2" x="2" y="6" fill="none" stroke-miterlimit="10" stroke-width=".25"/><rect width="48" height="2" x="2" y="4" fill="none" stroke-miterlimit="10" stroke-width=".25"/><rect width="48" height="2" x="2" y="2" fill="none" stroke-miterlimit="10" stroke-width=".25"/></g></g><g><path fill="#FFF" d="M27.8,40.7H48c1.1,0,2,0.9,2,2v5.7c0,1.1-0.9,2-2,2H27.8c-1.1,0-2-0.9-2-2v-5.7 C25.8,41.6,26.7,40.7,27.8,40.7z"/><path fill="#FFF" d="M4,17.5h44c1.1,0,2,0.9,2,2v13.6c0,1.1-0.9,2-2,2H4c-1.1,0-2-0.9-2-2V19.5C2,18.4,2.9,17.5,4,17.5z"/><path fill="#FFF" d="M4,2.3h20.2c1.1,0,2,0.9,2,2V10c0,1.1-0.9,2-2,2H4c-1.1,0-2-0.9-2-2V4.3C2,3.2,2.9,2.3,4,2.3z"/></g></svg>