<svg xmlns="http://www.w3.org/2000/svg" width="52" height="52" x="0" y="0" enable-background="new 0 0 52 52" viewBox="0 0 52 52" xml:space="preserve"><g><path fill="#FFF" d="M47.6,2H4.4C3,2,2,3,2,4.4s1,2.4,2.4,2.4h19.2v5C15,12.9,8.4,20.2,8.4,29.1v5.5c0,5.8,4.6,10.6,10.6,10.6 h14.2c5.8,0,10.5-4.7,10.5-10.6V29c0-8.9-6.6-16.2-15.2-17.4V6.8h19.2c1.4,0,2.4-1,2.4-2.4S49,2,47.6,2z M37.2,29L37.2,29L37.2,29 C37.2,29.1,37.2,29,37.2,29c0,2.3-1.8,4.2-4.2,4.2H19c-2.3,0-4.1-1.8-4.2-4.2v0.1V29c0,0,0,0,0,0.1c0.1-6.2,5-11.1,11-11.1h0.3 C32.2,18,37.1,23,37.2,29z"/><circle cx="6.8" cy="46.8" r="3.2" fill="#FFF"/><circle cx="45.2" cy="46.8" r="3.2" fill="#FFF"/></g></svg>